<?xml version="1.0" encoding="utf-8"?>
<!-- Generator: Adobe Illustrator 25.2.1, SVG Export Plug-In . SVG Version: 6.00 Build 0)  -->
<svg version="1.1" id="Layer_1" xmlns="http://www.w3.org/2000/svg" xmlns:xlink="http://www.w3.org/1999/xlink" x="0px" y="0px"
	 width="120px" height="120px" viewBox="0 0 120 120" style="enable-background:new 0 0 120 120;" xml:space="preserve">
<style type="text/css">
	.st0{fill:#00CCCC;}
	.st1{fill:#0FB9B8;}
</style>
<g id="LogStream.LOCKUP">
	<g id="LogStream.MARK.COLOR">
		<path class="st0" d="M23.88,45.852c3.884-1.694,8.068-2.596,12.305-2.652c4.265,0.099,8.465,1.062,12.348,2.829
			c3.81,1.733,7.481,3.757,10.98,6.054c3.393,2.2,6.965,4.11,10.679,5.71c3.604,1.537,7.472,2.357,11.389,2.416
			c3.884-0.088,7.713-0.932,11.274-2.484c3.084-1.299,5.938-3.089,8.451-5.3C97.121,29.61,75.232,14.507,52.417,18.693
			c-15.503,2.844-28.109,14.129-32.645,29.224C21.094,47.139,22.466,46.449,23.88,45.852z"/>
		<path class="st1" d="M98.908,75.819c-1.991,4.885-4.885,9.352-8.529,13.166c-2.071,0.381-4.174,0.554-6.279,0.515
			c-3.884-0.031-7.725-0.817-11.308-2.316c-3.555-1.647-6.755-3.97-9.423-6.839c-2.742-2.972-5.228-6.17-7.433-9.56
			c-2.262-3.523-4.792-6.866-7.568-10c-2.828-3.194-6.274-5.781-10.129-7.607c-3.896-1.671-8.087-2.547-12.326-2.578
			c-2.342-0.04-4.681,0.161-6.982,0.6c0.016-0.075,0.035-0.149,0.052-0.223c2.064-0.761,4.2-1.314,6.374-1.651
			c3.982-0.662,8.057-0.523,11.985,0.407c3.864,1.075,7.47,2.921,10.6,5.428c3.176,2.542,6.151,5.324,8.9,8.323
			c2.866,3.084,5.987,5.921,9.33,8.479c3.47,2.63,7.42,4.559,11.628,5.679c4.277,0.987,8.706,1.128,13.038,0.415
			C93.607,77.631,96.315,76.88,98.908,75.819z M81.524,63.781c-4.351-0.22-8.617-1.286-12.56-3.138
			c-3.802-1.808-7.445-3.933-10.889-6.354c-3.312-2.361-6.8-4.464-10.435-6.289c-3.582-1.802-7.493-2.859-11.495-3.107
			c-4.036-0.093-8.05,0.619-11.808,2.094c-1.722,0.653-3.386,1.449-4.975,2.379c-0.039,0.149-0.074,0.3-0.111,0.448
			c1.912-0.74,3.887-1.307,5.9-1.693c4.152-0.85,8.431-0.862,12.588-0.036c4.151,0.984,8.06,2.799,11.49,5.335
			c3.366,2.486,6.536,5.227,9.481,8.2c2.861,2.858,5.958,5.469,9.258,7.806c3.203,2.252,6.815,3.86,10.632,4.733
			c3.817,0.722,7.737,0.693,11.543-0.085c3.792-0.721,7.415-2.149,10.679-4.211c0.781-3.23,1.176-6.54,1.178-9.863
			c0-0.835-0.031-1.661-0.079-2.484c-2.351,1.619-4.888,2.948-7.557,3.96C90.275,63.074,85.913,63.857,81.524,63.781z
			 M83.948,93.543c-4.385-0.203-8.688-1.262-12.667-3.117c-3.886-1.97-7.35-4.679-10.2-7.975c-2.738-3.198-5.2-6.622-7.362-10.234
			c-2.065-3.505-4.397-6.845-6.975-9.991c-2.54-3.103-5.683-5.659-9.238-7.513c-3.649-1.727-7.606-2.71-11.639-2.89
			c-2.383-0.137-4.775-0.015-7.132,0.362C14.421,74.976,29.4,96.949,52.191,101.263c11.598,2.195,23.585-0.592,33.026-7.678
			C84.8,93.577,84.371,93.567,83.948,93.543z"/>
	</g>
</g>
</svg>
